<?xml version="1.0" encoding="utf-8"?>
<!-- Generator: Adobe Illustrator 24.0.2, SVG Export Plug-In . SVG Version: 6.00 Build 0)  -->
<svg version="1.1" id="Bold" xmlns="http://www.w3.org/2000/svg" xmlns:xlink="http://www.w3.org/1999/xlink" x="0px" y="0px"
	 viewBox="0 0 1663.2 1351.4" style="enable-background:new 0 0 1663.2 1351.4;" xml:space="preserve">
<g>
	<path d="M873.9,0c11.7,3.1,23.3,6.4,35,9.3c166.2,40.9,273,183.6,266,355.6c-6.4,158.2-131.1,293.2-294.4,318.6
		c-7.8,1.2-15.5,2.9-26.4,4.9c0,10.4,0,20.6,0,30.9c0,195.5,0,390.9,0,586.4c0,9.7,2.2,20.8-1.8,28.6c-4,7.8-14,16.3-22.1,17
		c-6.1,0.5-16.1-9.5-19.3-17c-3.6-8.3-1.8-19-1.8-28.7c-0.1-194.6,0-389.1,0-583.7c0-10.5,0-20.9,0-34c-14.9-2.3-28.5-4.2-42.1-6.7
		c-162-29.3-281.3-176-279-342.9C490.2,173.5,613,30.9,775,5c4.9-0.8,9.6-3.3,14.4-5C817.5,0,845.7,0,873.9,0z M717.9,343.7
		c49.6-0.4,90.4-41.4,90.7-91c0.3-50.1-42.7-92.8-92.7-91.9c-49.9,0.8-90.3,41.6-90.4,91.3C625.3,302.7,667.1,344.1,717.9,343.7z"/>
</g>
</svg>
