<?xml version="1.0" encoding="utf-8"?>
<!-- Generator: Adobe Illustrator 24.0.2, SVG Export Plug-In . SVG Version: 6.00 Build 0)  -->
<svg version="1.1" id="Bold" xmlns="http://www.w3.org/2000/svg" xmlns:xlink="http://www.w3.org/1999/xlink" x="0px" y="0px"
	 viewBox="0 0 1663.2 1351.4" style="enable-background:new 0 0 1663.2 1351.4;" xml:space="preserve">
<g>
	<path d="M786.6,2.8c5.7,0.3,15,1.4,20.6,2.5c71.6,14.4,140,37,203.2,75.6c271.5,165.5,343.8,533.3,153.2,787.6
		c-15.5,20.6-14.3,31.9,3.4,50c96.8,98.7,192.4,198.6,287.9,298.6c41.9,43.8,36.6,97.7-11.2,123.6c-31.5,17.1-66.2,9.4-94.8-20.4
		c-95.6-99.9-191.7-199.3-286.6-299.8c-18.4-19.5-30.8-24.3-56.4-8.2c-199.7,124.8-466.5,99.5-641.2-58.3
		C237.5,839.1,175.1,695.4,180.2,525C188,263.9,386.7,44.6,645.6,6.4C649.7,5.8,706-1,786.6,2.8z M726.2,942.6
		c220-0.3,399.1-178,397.4-397C1122,331,955.7,146.9,723.2,148.1c-238.5,1.2-397.2,196.4-395.4,399
		C329.9,767.4,505.3,942.9,726.2,942.6z"/>
</g>
</svg>
