<?xml version="1.0" encoding="utf-8"?>
<!-- Generator: Adobe Illustrator 24.0.2, SVG Export Plug-In . SVG Version: 6.00 Build 0)  -->
<svg version="1.1" id="Bold" xmlns="http://www.w3.org/2000/svg" xmlns:xlink="http://www.w3.org/1999/xlink" x="0px" y="0px"
	 viewBox="0 0 1663.2 1351.4" style="enable-background:new 0 0 1663.2 1351.4;" xml:space="preserve">
<g>
	<path d="M158.6,995.8c11.9-54,27.1-106.7,62.6-150.8c13.1-16.3,26.9-32.2,41.7-47.1c83.2-83.7,166.8-167.1,250.4-250.6
		c6-6,12.4-11.7,22.5-21.1c0,34.3-1.9,64.3,0.6,93.9c2.3,27.7,7.6,55.4,14.8,82.2c5,18.6,0.8,30-12.7,43.2
		c-57.7,56.1-114.7,112.9-170.9,170.5c-82.1,84.3-62.3,211,40.4,258.6c56.5,26.2,111.9,20.4,160.4-18c32.7-25.9,61.2-57.3,90.9-86.9
		c67.6-67.2,135.2-134.4,202.2-202.3c71.8-72.7,70.3-167-3-238.8c-17.9-17.5-16.8-69.5,4.5-94.8c16.2-19.2,35.5-35.8,54.7-54.9
		c84.4,50,133.9,123.8,149,219.6c17.3,109.6-16.3,203.3-94.8,281.4c-87.4,87-174.9,173.9-261.5,261.7c-53.8,54.6-116,91.9-193,102.4
		c-2.4,0.3-4.7,2.3-7,3.5c-24.5,0-49,0-73.5,0c-4-1.5-7.9-3.7-12.1-4.4c-87.8-14.2-156.8-58.5-209-130
		c-31.5-43.1-45.8-92.9-57.3-144C158.6,1044.8,158.6,1020.3,158.6,995.8z"/>
	<path d="M766.9,851.3C663.6,798.2,597.4,667,611.8,549.8c9.3-75.7,39.6-140.6,93.6-194.5c85.5-85.3,170-171.6,256.3-256.1
		c173.7-169.8,452.9-103.9,525.8,124.4c34.1,106.9,18,210.3-57.1,292.7c-89.3,98.1-189,186.7-283.9,279.2c0-24.7,1.9-53.7-0.5-82.3
		c-2.4-27.7-7.1-55.6-14.7-82.3c-5.8-20.6-1-33.2,13.9-47.5c51-49.2,101.2-99.3,150.5-150.2c44.8-46.3,61.7-101,40.7-163.8
		c-19.8-59.2-62-94.2-122.7-105.5c-53.9-10-100.7,7.6-139,45.4c-87.2,86.1-174.5,172-259.7,260.1c-66.7,69-62.4,165,6.9,231.3
		c18.9,18.1,19.3,68.6-1.7,94.5C803.8,815.2,784.4,833,766.9,851.3z"/>
</g>
</svg>
