<?xml version="1.0" encoding="utf-8"?>
<!-- Generator: Adobe Illustrator 24.0.2, SVG Export Plug-In . SVG Version: 6.00 Build 0)  -->
<svg version="1.1" id="Capa_1" xmlns="http://www.w3.org/2000/svg" xmlns:xlink="http://www.w3.org/1999/xlink" x="0px" y="0px"
	 viewBox="0 0 1715.9 1715.9" style="enable-background:new 0 0 1715.9 1715.9;" xml:space="preserve">
<path d="M956.7,977.8c25.2-5.5,49.7-9.7,73.7-16.2c92-25.1,144.4-85.8,159-179.7c5.3-33.9,7.3-68,1.8-102
	c-6.3-38.8-24-72.6-50.4-102.3c16.4-46.7,12.5-92.3-5.3-137.7c-16.5-4.7-31.8,0-46.9,4.3c-29.5,8.5-56.5,22.7-82,39.6
	c-9.6,6.4-18.2,8.7-30.3,5.7c-78.3-19.8-156.9-18.6-235.2,0.5c-8.5,2.1-14.5,0.7-21.9-3.4c-24.5-13.5-49.1-26.9-74.6-38.4
	c-17.7-8-36.9-12.4-58.3-9.1c-18.2,44.9-22.1,90.3-5.9,137.7c-1.5,2.2-3,4.8-4.9,7C535.9,630.1,523,684.5,527.4,744
	c2.3,30.4,6.7,60.5,17.4,89.4c19.7,53,55.1,91.1,106.6,114.4c27.4,12.4,56.1,19.9,85.7,24.8c8.4,1.4,16.8,2.8,27.4,4.6
	c-17.4,18.7-26.8,39.9-31.5,63.5c-0.8,3.8-5.3,8.4-9.1,9.9c-47.9,19.1-104.4,15.9-140.2-38.6c-8.3-12.6-17.5-25-28.2-35.7
	c-14.9-15-33.5-24.4-55.1-25.7c-8.9-0.5-18.6-1.3-24.2,8.6c1.4,9.7,8.9,14.6,16,18.9c27.9,16.8,46.4,41.6,58.1,71
	c20.9,53.1,62.5,74,115.8,76.3c20.5,0.9,41.2-2.4,63.1-3.9c0.4,2.8,1.4,6.7,1.4,10.6c0.3,25.6-0.7,51.3,1,76.8
	c2.1,31.4-20.2,40.3-45.5,31.3c-51.5-18.5-99.3-43.6-142.5-77c-107.2-82.9-175.4-190.8-199-324.2c-51.2-290.5,135-555.9,414.5-608.1
	c173-32.3,328,10.9,458.6,130.9c90.8,83.4,145.3,187.2,161.7,309.5c21.8,163-22.7,306.5-132.7,428.9
	c-57.7,64.2-128.2,110.1-209.5,139.4c-4.6,1.6-9.3,3.2-14,3.8c-21.5,2.5-32.4-6.9-32.5-28.5c-0.2-45.1-0.3-90.3,0-135.4
	C990.9,1041.7,984.2,1006.5,956.7,977.8z M358.5,1320.7c-34.6-8.7-70-10.3-105.3-6.8c-64.6,6.4-109.2,40.1-128.6,102.6
	c-19,61.2-20,123.7-4.1,185.7c14,54.2,47.8,90.9,103.1,105.5c30.4,8,61.4,9.8,92.5,6.8c26.8-2.6,52.6-9.7,76.9-22
	c8.4-4.3,12.6-9.7,12.5-19.8c-0.5-57.9-0.1-115.8-0.3-173.8c0-13.1-2-15.2-14.7-15.3c-36-0.3-71.9-0.3-107.9,0
	c-11.6,0.1-13.6,2.4-14,14.2c-0.4,14.6-0.4,29.3,0,43.9c0.3,14.8,1.9,16.1,17.5,16.3c11.4,0.2,22.8,0,33.9,0
	c3.5,24.5,2.7,63-1.6,76.9c-12.2,0.7-24.9,2.3-37.6,2.2c-40.9-0.4-65.7-17.8-76.7-57.1c-5.7-20.3-8.2-41.9-9-63
	c-0.9-23.7,1.5-47.5,9.8-70.2c11.5-31.5,33.6-49.5,67.1-54.3c28.9-4.1,57-1,85.1,5.8c5.1,1.2,10.3,2.3,17.1,3.8
	c5.6-23.2,10.8-44.9,15.9-66.1C381.3,1325.4,369.5,1323.4,358.5,1320.7z M855.6,1456.8c0-37.8,0.1-75.6-0.1-113.4
	c-0.1-15.2-1.7-16.9-16.6-17.2c-17.1-0.3-34.2-0.3-51.2,0c-12.8,0.3-14.8,2.5-15.4,14.9c-0.2,3.6,0,7.3,0,11
	c0,109.8,0,219.5,0,329.3c0,3.7-0.2,7.3,0.1,11c0.7,12.1,3.1,14.8,15.5,15.1c14.6,0.4,29.3,0.2,43.9,0.1
	c17.9-0.2,19.5-1.8,19.6-20.3c0.1-42.1,0-84.2,0-126.2c0-5.9,0-11.8,0-18.6c37.7,0,73.4,0,110.7,0c0,7,0,13,0,19
	c0,43.3-0.1,86.6,0.1,129.9c0.1,13.8,2.2,15.9,15.9,16.2c17.1,0.3,34.2,0.3,51.2,0c13.7-0.3,16.8-3.4,16.8-17.7
	c0.1-115.3,0.1-230.5,0-345.8c0-15.7-2-17.5-18.3-17.8c-15.2-0.2-30.5-0.2-45.7,0c-18.6,0.2-19.8,1.4-19.9,19.7
	c-0.1,35.4,0,70.7-0.1,106.1c0,4.6-0.8,9.3-1.3,14.8c-32.2,0-63.2,0-94.3,0c-2.9,0-5.9-0.4-10.1-0.7
	C855.9,1461.6,855.6,1459.2,855.6,1456.8z M1497.3,1714.1c42.2,0.7,79.3-8,95.7-61.5c14.6-47.4,15.7-96.3,3.6-144.4
	c-11.4-45.7-42.1-67.7-89.1-68.7c-24.1-0.5-46.7,5.3-69.9,16c0-7.9,0-14,0-20c0-31.1,0.1-62.2-0.1-93.3c-0.1-13.3-2-15.6-14.2-15.9
	c-18.3-0.4-36.6-0.4-54.9,0c-11.5,0.3-13.5,2.8-14.2,14.2c-0.2,3,0,6.1,0,9.1c0,111,0,222,0,333c0,1.8,0,3.7,0,5.5
	c0.3,17.2,2.1,19.1,18.6,19.4c7.3,0.1,14.7-0.5,21.9,0.1c13,1.2,23.1-1.3,23.8-19.6C1444.4,1706.3,1470.1,1713.6,1497.3,1714.1z
	 M1434.6,1519.2c13.7-8.2,28-12.7,43.6-12.3c16.3,0.4,27.9,7.9,33.7,23.3c2.1,5.7,4.5,11.5,5.1,17.5c2.2,23.7,3.3,47.5-2.3,70.9
	c-4.8,20-14.3,27.3-34.8,27.8c-18.7,0.5-28.7-2.3-45.2-12.4C1434.6,1596,1434.6,1557.7,1434.6,1519.2z M1284.2,1707.7
	c7.9-0.8,15.8-1.2,23.7-1.6c6.6-0.4,10-4,10.4-10.4c0.3-4.3,0.2-8.5,0.2-12.8c0-70.8,0-141.5,0-212.3c0-3.7,0.2-7.4-0.1-11
	c-1.1-10.6-4.2-13.8-15-14c-15.9-0.3-31.7-0.2-47.6-0.1c-19.7,0.1-20.7,1-20.7,20.7c-0.1,48.2,0,96.4,0,144.6
	c0,25.5-0.9,26.7-26.4,32.7c-4.1,1-8.4,1.8-12.6,2c-22.9,1.1-32.5-7.2-34.6-30.1c-0.5-5.4-0.4-11-0.4-16.5c0-36.6,0-73.2,0-109.8
	c0-10.4,0-20.7-0.1-31.1c-0.1-8-4-12.5-12.3-12.5c-19.5,0-39-0.1-58.6,0.1c-7.3,0-11.3,3.9-11.4,11.3c-0.1,4.3-0.1,8.5-0.1,12.8
	c0,47.6,0,95.2,0,142.7c0,10.4-0.4,20.8,0.8,31.1c3.4,30.1,16.8,54.6,47.2,63.4c18.3,5.3,38.3,6.5,57.6,6.5
	c26.1,0.1,49.9-9.9,73.8-23.2C1259.6,1707.3,1270.8,1709.1,1284.2,1707.7z M677.5,1379.1c-19-4.7-68.1-4.2-82.5,0.8
	c0,23,0,46.5,0,70.1c-3.7,1.2-6,2-8.2,2.6c-35.7,10.2-35.7,10.2-34.2,47.7c0,1.2,0,2.4,0,3.7c0.1,9.1,4.9,13.3,13.7,13.3
	c9,0,18,0,28.1,0c0.3,7.8,0.8,13.8,0.8,19.7c0.1,32.9-0.4,65.8,0.2,98.7c0.7,43.9,24.4,70.1,67.3,77.2c18.3,3,36.4,2.6,54.4-1
	c5.8-1.2,11.3-3.4,18.2-5.5c0-11.3,0.4-21.6-0.1-31.9c-0.4-8.9,0.6-19.4-3.8-26c-2.6-3.9-14.5-1.9-22.2-2.3
	c-22.3-1.2-31-9.5-31.3-31.6c-0.4-29.2-0.1-58.5,0-87.7c0-2.8,1.2-5.6,2-9.6c13.3,0,26.1,0.2,38.8-0.1c14.8-0.3,16.3-1.9,16.6-17.2
	c0.2-12.8,0.3-25.6,0-38.4c-0.4-13.8-2.5-15.8-16-16.1c-12.7-0.2-25.5-0.1-41.8-0.1C677.5,1421.7,677.5,1400.1,677.5,1379.1z
	 M529.1,1464.3c-0.1-16.7-2.1-18.6-19.2-18.8c-15.2-0.2-30.5-0.2-45.7,0c-15.3,0.2-18.3,3-18.4,18c-0.1,75.6-0.1,151.1,0,226.7
	c0,14.8,2.1,17,16.8,17.3c15.8,0.4,31.7,0.2,47.5,0.1c17.9-0.2,18.9-1.1,18.9-18.4c0.1-37.2,0-74.3,0-111.5
	C529.2,1539.8,529.3,1502.1,529.1,1464.3z M442.2,1381.2c0.3,25.3,20.2,45.4,45.3,45.6c26,0.2,46.2-20.2,46-46.5
	c-0.2-25.4-20.1-45.5-45-45.6C462.4,1334.6,441.9,1355.3,442.2,1381.2z M287.8,559.9c-3-5.5-9.8-9.7-20.5-12.6l-17.2-4.8
	c-10.7-3-18.7-2.9-24.1,0.3c-5.4,3.1-9.6,10.1-12.6,21l-1.4,5.1c-3,10.8-3,18.9,0.1,24.4c3,5.5,9.9,9.7,20.5,12.6l17.2,4.8
	c10.6,2.9,18.6,2.8,24.1-0.3c5.4-3.1,9.6-10.1,12.6-21l1.4-5.1C290.8,573.4,290.8,565.3,287.8,559.9z M190,413.8l8.6-14.3l84.2,50.6
	c8.3,5,14.3,8,18.1,9.1c3.8,1.1,7.4,1.1,10.7,0.2c3.4-1.1,6.6-2.9,9.3-5.6c2.7-2.7,6.5-7.9,11.2-15.8l8.1-13.5
	c4.7-7.9,7.6-13.7,8.7-17.4c1.1-3.7,1.3-7.4,0.6-10.9c-0.7-3.3-2.4-6.4-5.2-9.2c-2.8-2.8-8.3-6.7-16.6-11.8l-84.2-50.6l8.6-14.3
	l86,51.6c16.4,9.8,25.9,19.9,28.5,30.3c2.6,10.3-1,23.7-10.9,40.1l-9.3,15.5c-9.8,16.4-19.9,25.9-30.3,28.5
	c-10.4,2.6-23.7-1-40.1-10.9L190,413.8z M361.4,333.4l11.8-11.9l2,2c6.3,6.3,11.5,10.4,15.4,12.5s7.6,2.6,11,1.6
	c2.7-0.8,6-2.7,9.9-5.9c3.9-3.2,11.4-10.3,22.5-21.5c6-6,10.3-11.1,12.8-15.2c2.5-4.1,3.7-7.8,3.5-11.2c-0.1-1.8-1-4.1-2.9-6.8
	s-4.7-6-8.6-9.9c-7.9-7.8-13.7-12-17.3-12.4c-3.6-0.4-7.9,1.5-13,5.9l-35.1,30.2c-10.5,9-19.7,13.4-27.5,13.1
	c-7.9-0.3-16.7-5.4-26.5-15.1c-6.2-6.1-10.5-11.7-13.1-16.7c-2.5-5-3.7-10.1-3.4-15.3c0.2-4,1.9-8.4,4.9-13
	c3-4.6,9.4-11.8,19.1-21.6l3.8-3.8c10.8-10.9,19-18.1,24.4-21.5c5.5-3.4,11-5.3,16.5-5.8c3.7-0.3,7.7,0.6,11.8,2.7
	c4.1,2.2,8.6,5.6,13.3,10.3c1.4,1.4,2.4,2.4,3.1,3.2c0.7,0.8,1.3,1.4,1.9,2.1l-11.8,11.9l-2.6-2.6c-3.9-3.9-7.1-6.6-9.6-8.2
	c-2.5-1.6-4.8-2.4-6.8-2.4c-2.9,0-6.6,1.6-10.9,4.8c-4.3,3.2-11.8,10.1-22.3,20.6c-10.9,10.9-16.4,19.1-16.8,24.3
	c-0.3,5.3,3.2,11.6,10.7,18.9c6.1,6,11.2,9.3,15.3,9.8c4.1,0.5,9-1.7,14.6-6.5l35.9-30.6c9.5-8,18-11.7,25.5-11.2
	c7.6,0.5,16.1,5.5,25.6,14.9c6.9,6.9,11.7,12.5,14.3,16.9c2.6,4.4,4,8.8,4.3,13.2c0.4,5.5-1,10.9-4.2,16.4s-10.4,14-21.9,25.5
	l-5.2,5.3c-9.7,9.8-17.1,16.2-22.2,19.3c-5,3.1-10.1,4.7-15.3,5c-4.9,0.4-10-0.7-15.1-3.3c-5.2-2.6-10.7-6.9-16.7-12.8L361.4,333.4z
	 M501.3,267.6l-80.4-126.3l88.6-56.4l8.5,13.4l-74.7,47.5l26.3,41.3l72.6-46.2l8.2,12.9L477.9,200l28.9,45.5l74.7-47.5l8.4,13.2
	L501.3,267.6z M609.3,202.1l-50.6-141l63.6-22.8c15.8-5.7,27.6-7.2,35.2-4.7c7.7,2.6,13.6,9.9,18,21.9l7.6,21.3
	c2.6,7.4,3.2,13.7,1.7,19c-1.5,5.3-5.1,9.5-10.8,12.8c7.3-0.8,13,0.4,17.2,3.6c4.2,3.2,7.9,9.3,11.1,18.2l12.2,33.9l-16.3,5.8
	l-10.4-29.1c-3.6-10.1-7.7-16.4-12.1-18.8c-4.5-2.4-11.3-2-20.6,1.4l-50,17.9l19.7,54.9L609.3,202.1z M624.6,54.4l-45,16.1
	l20.2,56.4l45-16.1c11.7-4.2,18.9-8.4,21.5-12.6c2.6-4.2,2.5-10.1-0.2-17.6l-5.9-16.5c-2.7-7.6-6.4-12.2-10.9-13.8
	C644.8,48.7,636.6,50.1,624.6,54.4z M807.4,149.9L804.6,0.2l93.5-1.7l0.3,15.9l-77,1.4l0.9,49l74.7-1.4l0.3,15.3L822.6,80l1.3,69.6
	L807.4,149.9z M925.8,152.3l18-148.7l16.6,2l-18,148.7L925.8,152.3z M974.6,156.4L1017.7,13l24.5,7.4l39.3,151.4l38.5-128l15.8,4.7
	l-43.1,143.4l-24.5-7.4l-39.2-151.6l-38.5,128.2L974.6,156.4z M1120.3,204.5l77.7-128l61.8,37.5c16.1,9.7,25.4,19.8,28,30
	c2.6,10.3-0.9,23.3-10.5,39.2l-25.6,42.2c-9.6,15.9-19.6,25-30,27.5c-10.4,2.4-23.6-1.2-39.6-10.9L1120.3,204.5z M1142.1,200.4
	l45.4,27.5c12.3,7.5,21.8,10.4,28.6,8.7c6.7-1.6,13.6-8.3,20.8-20.1l25.1-41.4c7.5-12.4,10.5-21.9,8.8-28.6
	c-1.6-6.7-8.6-13.8-21-21.3l-45.4-27.5L1142.1,200.4z M1244.9,285.8l104.7-107.1l75.1,73.4l-11.1,11.4l-63.3-61.9l-34.2,35
	l61.5,60.1l-10.7,10.9l-61.5-60.1l-37.7,38.5L1331,348l-11,11.2L1244.9,285.8z M1333.3,376l125.6-81.6l36.8,56.7
	c9.2,14.1,13.4,25.2,12.6,33.2c-0.7,8-6.5,15.5-17.2,22.5l-19,12.3c-6.6,4.3-12.6,6.3-18.1,6c-5.5-0.2-10.5-2.8-15-7.6
	c2.5,6.9,2.6,12.7,0.5,17.6c-2.1,4.8-7.2,9.8-15.2,15l-30.2,19.6l-9.4-14.5l25.9-16.8c9-5.8,14.2-11.2,15.5-16.1
	c1.3-4.9-0.7-11.5-6.1-19.8l-28.9-44.5l-48.9,31.8L1333.3,376z M1480.6,357l-26-40.1l-50.3,32.7l26,40.1c6.8,10.5,12.5,16.5,17.2,18
	c4.7,1.6,10.4,0.2,17.1-4.2l14.7-9.5c6.8-4.4,10.5-9,11-13.8C1490.7,375.4,1487.5,367.6,1480.6,357z M1509.3,561.4l-1.5-5
	c-3.1-10.8-7.4-17.7-12.8-20.8c-5.5-3.1-13.5-3.1-24.1,0l-17.2,5c-10.6,3-17.4,7.3-20.3,12.8c-3,5.5-2.9,13.7,0.2,24.5l1.4,5
	c3.1,10.8,7.4,17.7,12.8,20.8c5.4,3.1,13.5,3.1,24.1,0l17.2-4.9c10.6-3.1,17.4-7.4,20.4-12.9
	C1512.5,580.4,1512.5,572.2,1509.3,561.4z"/>
</svg>
