<?xml version="1.0" encoding="utf-8"?>
<!-- Generator: Adobe Illustrator 24.0.2, SVG Export Plug-In . SVG Version: 6.00 Build 0)  -->
<svg version="1.1" id="Bold" xmlns="http://www.w3.org/2000/svg" xmlns:xlink="http://www.w3.org/1999/xlink" x="0px" y="0px"
	 viewBox="0 0 1663.2 1351.4" style="enable-background:new 0 0 1663.2 1351.4;" xml:space="preserve">
<g>
	<g>
		<path d="M855.2,7.9c51.4,52.8,94.1,111.8,129.4,176.6c54.6,100.1-1.9,202.8-85.1,237.2c-10.4,4.3-20.8,7-22.4,21.8
			c-3.9,34.8,1.2,41.1,34.9,33.3c22-5.1,43.2-13.6,64.8-20.4c52.3-16.3,89.6,10,89.7,64.1c0.2,244.3,0.3,488.6-0.1,732.8
			c-0.1,57.6-39.3,96.6-97.3,96.9c-89.9,0.6-179.7,0.6-269.6,0c-58-0.4-97.2-39.3-97.3-96.9c-0.3-244.3-0.3-488.6-0.1-732.8
			c0.1-54.2,37.3-80.3,89.7-64.2c24.1,7.4,46.9,19.5,72.5,21.6c9,0.8,23.4,11.1,25.6-5.8c1.9-15,9.4-33.8-8.9-45.3
			c-8-5.1-17.5-7.8-26-12.2C684.1,379,634.1,285,679.4,194C714,124.7,759.5,63.4,813.3,7.9C827.2,7.9,841.2,7.9,855.2,7.9z
			 M798.8,350.1c-0.1,0-0.1,0-0.2,0c0,13.1,0,26.2,0,39.2c0.1,36.5,8.2,42.5,45.5,38.7c19.7-2,27-9.9,26.1-29.8
			c-1.4-33.1,0.1-66.2-0.7-99.4c-0.6-25.7-13.7-39.2-36.1-38.4c-23.6,0.9-34.2,14.7-34.6,37.3C798.5,315.2,798.8,332.7,798.8,350.1z
			"/>
	</g>
</g>
</svg>
